PathFileType	4	(X/Y/Z)	/Users/itak/Documents/Research/Walk-IL/dataset/trc/00069_00006.trc
DataRate	CameraRate	NumFrames	NumMarkers	Units	OrigDataRate	OrigDataStartFrame	OrigNumFrames
100.000000	100.000000	4	53	mm	100.000000	382	765
Frame#	Time	RPSI			LPSI			L3			STRN			T10			C7			CLAV			RBAK			LBAK			LSHO			LUPA			LAEL			LAOL			LWTS			LWPS			LFRA			LIFD			LHPS			LHTS			RSHO			RUPA			RAEL			RAOL			RWTS			RWPS			RFRA			RIFD			RHTS			RHPS			RBHD			LFHD			RFHD			LBHD			LHIP			RHIP			RASI			LASI			LKNE			LTHI			LANK			LTIP			LTOE			LMT1			LMT5			LHEE			RKNE			RTHI			RANK			RTIP			RTOE			RMT1			RMT5			RHEE			
		X1	Y1	Z1	X2	Y2	Z2	X3	Y3	Z3	X4	Y4	Z4	X5	Y5	Z5	X6	Y6	Z6	X7	Y7	Z7	X8	Y8	Z8	X9	Y9	Z9	X10	Y10	Z10	X11	Y11	Z11	X12	Y12	Z12	X13	Y13	Z13	X14	Y14	Z14	X15	Y15	Z15	X16	Y16	Z16	X17	Y17	Z17	X18	Y18	Z18	X19	Y19	Z19	X20	Y20	Z20	X21	Y21	Z21	X22	Y22	Z22	X23	Y23	Z23	X24	Y24	Z24	X25	Y25	Z25	X26	Y26	Z26	X27	Y27	Z27	X28	Y28	Z28	X29	Y29	Z29	X30	Y30	Z30	X31	Y31	Z31	X32	Y32	Z32	X33	Y33	Z33	X34	Y34	Z34	X35	Y35	Z35	X36	Y36	Z36	X37	Y37	Z37	X38	Y38	Z38	X39	Y39	Z39	X40	Y40	Z40	X41	Y41	Z41	X42	Y42	Z42	X43	Y43	Z43	X44	Y44	Z44	X45	Y45	Z45	X46	Y46	Z46	X47	Y47	Z47	X48	Y48	Z48	X49	Y49	Z49	X50	Y50	Z50	X51	Y51	Z51	X52	Y52	Z52	X53	Y53	Z53	

383	3.82	-67.79897308349609	1025.67041015625	-277.8746337890625	-113.4977874755859	1023.096069335938	-442.4749145507812	-93.12244415283203	1089.82861328125	-374.0023803710938	162.9488830566406	1279.238037109375	-426.635986328125	-100.9126586914062	1217.996459960938	-393.0488891601562	-40.68610382080078	1484.108154296875	-414.1089782714844	135.0941467285156	1394.339721679688	-427.6076049804688	-96.41291046142578	1348.885864257812	-329.0293884277344	-74.91149139404297	1444.474853515625	-508.816650390625	18.17110252380371	1449.903076171875	-592.00390625	-11.12791347503662	1329.994140625	-673.5111694335938	7.592928886413574	1122.162719726562	-722.2540893554688	-39.40324783325195	1093.8125	-629.6991577148438	111.1574859619141	880.2241821289062	-711.1609497070312	42.82833480834961	876.2086181640625	-760.4566650390625	27.42987632751465	1016.425354003906	-747.8264770507812	122.8615875244141	694.0341186523438	-719.0530395507812	76.97936248779297	796.4598388671875	-774.9505004882812	133.2210845947266	799.819580078125	-730.983642578125	38.02169799804688	1453.073974609375	-246.282470703125	27.15686988830566	1391.009765625	-179.7253723144531	-22.69371604919434	1140.130737304688	-114.1297454833984	-9.346423149108887	1106.042602539062	-206.8021545410156	122.0004501342773	887.906005859375	-150.0285491943359	57.57969284057617	873.316162109375	-93.19515228271484	-9.053466796875	1057.438110351562	-98.53455352783203	109.7319488525391	699.9863891601562	-174.4212036132812	142.4468994140625	782.3880615234375	-151.2464447021484	90.38113403320312	782.6895141601562	-93.52831268310547	19.15110206604004	1669.319458007812	-495.5676574707031	136.2805938720703	1685.074829101562	-314.7282104492188	181.4700927734375	1708.503784179688	-430.6426696777344	-19.5511474609375	1637.79541015625	-367.6567687988281	-35.90494537353516	961.265625	-555.5272827148438	16.57082748413086	957.84521484375	-212.2608032226562	130.0591125488281	978.7364501953125	-265.5968627929688	85.47399139404297	967.5249633789062	-529.0518798828125	70.77365112304688	503.5624084472656	-543.4028930664062	25.42943000793457	642.8480834960938	-566.309326171875	-52.1485710144043	42.60696792602539	-560.5632934570312	2.077852725982666	262.8152465820312	-564.9324951171875	151.8144073486328	39.78358840942383	-580.1498413085938	113.0760269165039	43.14091873168945	-520.2974853515625	44.47286224365234	32.80595779418945	-611.7135009765625	-93.48104858398438	43.13667678833008	-479.2304992675781	229.5980987548828	538.5070190429688	-292.3365173339844	143.5211486816406	796.24365234375	-238.68212890625	-53.42578125	133.8834228515625	-287.8766784667969	174.5435791015625	420.4718017578125	-285.7567443847656	137.2530212402344	64.27439117431641	-347.6501770019531	76.9644775390625	79.93780517578125	-380.298095703125	62.40010452270508	94.89318084716797	-284.1158142089844	-99.90851593017578	152.4450988769531	-340.471435546875	
384	3.83	-62.65023422241211	1025.840087890625	-280.4609375	-106.5341186523438	1023.257019042969	-445.4630432128906	-86.85572052001953	1089.932250976562	-377.1397399902344	170.1554107666016	1279.061645507812	-426.4339904785156	-94.31552124023438	1217.998901367188	-396.7495422363281	-33.43915176391602	1484.060302734375	-417.1673583984375	142.4222717285156	1394.162475585938	-427.8652954101562	-90.49918365478516	1348.917846679688	-332.9435424804688	-66.31455993652344	1444.33203125	-512.4375610351562	28.0967845916748	1449.645874023438	-594.0947875976562	0.4029170274734497	1329.79052734375	-676.0831298828125	21.11357498168945	1122.259887695312	-725.372802734375	-27.08461952209473	1093.2724609375	-633.6826782226562	127.154670715332	881.4945678710938	-713.0448608398438	59.55716323852539	876.642822265625	-763.202880859375	42.37126922607422	1016.706726074219	-750.8101806640625	141.2683868408203	695.4105834960938	-720.509765625	94.85026550292969	797.2388305664062	-777.1416015625	150.5785675048828	801.4508666992188	-732.54150390625	42.5210075378418	1453.07470703125	-248.1889495849609	30.58962631225586	1391.13134765625	-181.7450866699219	-20.82368850708008	1140.513916015625	-116.6962509155273	-5.582577705383301	1106.056884765625	-208.9966735839844	123.6350173950195	887.5385131835938	-148.03955078125	57.87016296386719	873.5738525390625	-92.63946533203125	-7.696933269500732	1057.94091796875	-100.4524307250977	111.2265548706055	699.606689453125	-171.6856231689453	143.6972198486328	781.9908447265625	-148.2494506835938	90.45524597167969	782.7752685546875	-91.58570861816406	27.69793701171875	1669.224975585938	-497.6910400390625	142.425048828125	1684.897216796875	-315.2685241699219	189.187255859375	1708.198364257812	-430.6046752929688	-12.78748607635498	1637.839111328125	-370.3339233398438	-27.96528625488281	961.19287109375	-557.6631469726562	21.05163764953613	958.1752319335938	-214.0254974365234	135.1419830322266	978.9799194335938	-266.2188720703125	93.21001434326172	967.2694702148438	-530.1255493164062	73.40711975097656	502.7084350585938	-543.9241333007812	29.79564476013184	642.5249633789062	-567.1708984375	-52.09572982788086	42.72834014892578	-560.434814453125	3.230825662612915	262.6083374023438	-564.988037109375	151.9387664794922	39.74244689941406	-580.0499267578125	113.1389541625977	42.99873733520508	-520.1982421875	44.50070953369141	32.86612319946289	-611.640380859375	-93.35874176025391	43.18737411499023	-479.0985717773438	239.3384704589844	541.0206298828125	-291.6181030273438	149.6888885498047	797.754638671875	-238.4805297851562	-28.88364791870117	125.4382247924805	-296.4466552734375	187.6891326904297	420.5648498535156	-286.9248962402344	166.2628021240234	64.73629760742188	-351.3824768066406	106.1943283081055	77.67150115966797	-385.6039123535156	88.32318878173828	91.44924163818359	-289.6907348632812	-74.77869415283203	142.2291412353516	-350.1488647460938	
385	3.84	-57.46616363525391	1025.831909179688	-282.9573669433594	-99.54037475585938	1023.259765625	-448.3402404785156	-80.49303436279297	1089.877563476562	-380.122802734375	177.3605499267578	1278.695678710938	-426.1418762207031	-87.65357971191406	1217.862060546875	-400.2433776855469	-26.14667510986328	1483.855590820312	-420.0500183105469	149.7741088867188	1393.794311523438	-428.0173645019531	-84.48078918457031	1348.819213867188	-336.6541748046875	-57.66765213012695	1444.051147460938	-515.838134765625	38.00748825073242	1449.212890625	-595.9825439453125	11.89256858825684	1329.417724609375	-678.4175415039062	34.5602912902832	1122.208984375	-728.2175903320312	-14.76815032958984	1092.573486328125	-637.3983154296875	143.1260833740234	882.6747436523438	-714.6370849609375	76.28258514404297	876.9690551757812	-765.6323852539062	57.25061416625977	1016.846130371094	-753.5055541992188	159.8031463623047	696.796875	-721.6474609375	112.7385177612305	797.9550170898438	-779.0029296875	168.0231475830078	803.1416625976562	-733.8583984375	47.18102264404297	1452.8974609375	-249.9752044677734	34.21530914306641	1391.055053710938	-183.6673889160156	-18.73019599914551	1140.683227539062	-119.2148818969727	-1.674637317657471	1105.880981445312	-211.1103668212891	125.3047332763672	886.9603881835938	-146.1967315673828	58.29105758666992	873.6292114257812	-92.17380523681641	-6.118307113647461	1058.23486328125	-102.3584899902344	112.6471939086914	699.0278930664062	-169.0755462646484	144.9474182128906	781.3847045898438	-145.4113616943359	90.58687591552734	782.6586303710938	-89.79026031494141	36.26045227050781	1668.96044921875	-499.6453247070312	148.6161346435547	1684.563598632812	-315.6991577148438	196.8984069824219	1707.753173828125	-430.451904296875	-5.949295997619629	1637.693603515625	-372.8553771972656	-19.97587013244629	961.016845703125	-559.7018432617188	25.64148139953613	958.2787475585938	-215.7440185546875	140.2880401611328	978.9967651367188	-266.7944030761719	100.9616775512695	966.9097900390625	-531.1196899414062	76.08641815185547	501.8243713378906	-544.4342651367188	34.16822814941406	642.133544921875	-568.0003662109375	-52.04389572143555	42.85411834716797	-560.2974243164062	4.411233425140381	262.3834228515625	-565.027587890625	152.0641326904297	39.70064163208008	-579.9468994140625	113.1893615722656	42.8615608215332	-520.0888671875	44.53089904785156	32.93180084228516	-611.5599365234375	-93.30624389648438	43.2685432434082	-478.9656066894531	248.4637603759766	543.116943359375	-290.7499694824219	155.5931549072266	798.912841796875	-238.201416015625	-3.723454475402832	116.9181518554688	-304.5406494140625	200.4886779785156	420.4010009765625	-287.8704528808594	195.3799743652344	65.33058166503906	-354.6008911132812	135.7287902832031	75.63302612304688	-390.3258972167969	114.5898971557617	87.97811889648438	-294.8062133789062	-48.92964172363281	131.982421875	-359.3265991210938	
386	3.85	-52.23697280883789	1025.6357421875	-285.3779296875	-92.49842071533203	1023.097106933594	-451.1240844726562	-74.05149841308594	1089.667724609375	-382.9591674804688	184.5636596679688	1278.147216796875	-425.7629699707031	-80.91384124755859	1217.58935546875	-403.5278625488281	-18.80673027038574	1483.500732421875	-422.7431030273438	157.1458129882812	1393.244995117188	-428.0654296875	-78.36725616455078	1348.588256835938	-340.1529541015625	-48.9795036315918	1443.639892578125	-519.0110473632812	47.89432144165039	1448.615478515625	-597.6634521484375	23.3339672088623	1328.884399414062	-680.51123046875	47.94644165039062	1122.01806640625	-730.7823486328125	-2.441839694976807	1091.723022460938	-640.8388671875	159.0523376464844	883.7543334960938	-715.9234008789062	92.98462677001953	877.1910400390625	-767.74658203125	72.07865905761719	1016.852233886719	-755.9095458984375	178.4238128662109	698.2096557617188	-722.4818725585938	130.6262359619141	798.6167602539062	-780.5487670898438	185.5436706542969	804.9097290039062	-734.9428100585938	52.0050048828125	1452.543579101562	-251.6295318603516	38.03310012817383	1390.783447265625	-185.4816131591797	-16.40204238891602	1140.639282226562	-121.6779632568359	2.388544082641602	1105.51806640625	-213.1370086669922	127.0306015014648	886.1751708984375	-144.4987182617188	58.87208938598633	873.4848022460938	-91.79378509521484	-4.319308280944824	1058.3203125	-104.2536087036133	113.9915390014648	698.2490234375	-166.6049194335938	146.2071685791016	780.5659790039062	-142.7411804199219	90.79093933105469	782.3468627929688	-88.14978790283203	44.84178924560547	1668.528076171875	-501.4302673339844	154.8563537597656	1684.076049804688	-316.0125122070312	204.6063385009766	1707.172241210938	-430.1831970214844	0.9680142998695374	1637.360961914062	-375.2191162109375	-11.91130542755127	960.7393798828125	-561.6570434570312	30.33944129943848	958.1473999023438	-217.4174652099609	145.4959716796875	978.787353515625	-267.3140563964844	108.7542343139648	966.4527587890625	-532.0302734375	78.83311462402344	500.9161376953125	-544.9158325195312	38.57732772827148	641.6704711914062	-568.8046875	-51.99238967895508	42.98207855224609	-560.1560668945312	5.633928775787354	262.1364135742188	-565.0571899414062	152.1838684082031	39.6601448059082	-579.8440551757812	113.2229537963867	42.72952270507812	-519.972900390625	44.56303024291992	33.00212097167969	-611.4738159179688	-93.33594512939453	43.38134002685547	-478.8386840820312	256.9446716308594	544.7438354492188	-289.7608947753906	161.2246551513672	799.68603515625	-237.8470458984375	22.02213668823242	108.4104461669922	-312.0863342285156	212.8897857666016	419.9967041015625	-288.59375	224.5274353027344	66.12593078613281	-357.2732543945312	165.4775695800781	73.89119720458984	-394.4121704101562	141.1759338378906	84.57278442382812	-299.4259948730469	-22.38718414306641	121.7901229858398	-367.9235229492188	
